#!OML:ASF E:\emotionWalksFemale\Project 1\Capture day 1\Session 1\Female1.ASF
:FULLY-SPECIFIED
:DEGREES
1
root 7.81734 15.1614 41.7643 177.23 -2.09629 -179.756
lowerback 6.62286 1.04782 0.653691
upperback -5.14133 1.30571 -0.462537
thorax -9.13635 0.518882 -1.0365
lowerneck -5.9316 -3.35678 -6.7403
upperneck 16.8736 -5.12977 3.88108
head 6.36259 -2.89514 1.94159
rclavicle -2.93207e-014 1.39149e-015
rhumerus -50.2598 22.5058 -104.703
rradius 33.9985
rwrist 10.3554
rhand -3.37462 -55.6779
rfingers 7.12502
rthumb 22.3544 -84.4046
lclavicle -2.93207e-014 1.39149e-015
lhumerus -45.7293 2.06309 83.8207
lradius 38.8057
lwrist -17.2294
lhand -7.97201 -24.59
lfingers 7.12502
lthumb 17.9358 4.60294
rfemur -3.27147 17.5995 28.2127
rtibia 26.4785
rfoot -22.9783 -34.9878
rtoes -7.16458
lfemur -7.94755 -22.0098 -25.2406
ltibia 30.4594
lfoot -22.8691 17.9073
ltoes -30.0261
2
root 7.81876 15.1567 41.7641 177.057 -2.06395 -179.785
lowerback 6.7794 1.04044 0.620266
upperback -5.11247 1.2981 -0.45155
thorax -9.19862 0.518997 -1.00823
lowerneck -5.88199 -3.34504 -6.67986
upperneck 16.8998 -5.11417 3.78128
head 6.3574 -2.89452 1.90167
rclavicle 1.25731e-014 -5.96354e-016
rhumerus -50.3312 22.5845 -104.774
rradius 33.9638
rwrist 10.3111
rhand -3.51303 -55.3672
rfingers 7.12502
rthumb 22.2215 -84.1098
lclavicle 1.25731e-014 -5.96354e-016
lhumerus -45.7817 2.13074 83.7968
lradius 38.8119
lwrist -17.2359
lhand -5.9661 -24.8507
lfingers 7.12502
lthumb 19.8649 4.15405
rfemur -3.09169 17.7553 28.2836
rtibia 26.5148
rfoot -22.7204 -35.1403
rtoes -7.68146
lfemur -7.76026 -21.9301 -25.3393
ltibia 30.4876
lfoot -22.8773 17.8875
ltoes -30.7138
3
root 7.81909 15.1546 41.7654 176.971 -2.05168 -179.752
lowerback 6.86487 1.03018 0.670207
upperback -5.10783 1.29302 -0.43816
thorax -9.24348 0.514084 -1.02318
lowerneck -5.82006 -3.33033 -6.703
upperneck 16.9152 -5.11379 3.84734
head 6.35346 -2.89449 1.92749
rclavicle -6.68413e-015 3.18055e-015
rhumerus -50.3662 22.6278 -104.816
rradius 33.9305
rwrist 10.2329
rhand -3.58306 -54.9591
rfingers 7.12502
rthumb 22.1543 -83.7097
lclavicle -6.68413e-015 3.18055e-015
lhumerus -45.8458 2.13325 83.8047
lradius 38.8594
lwrist -17.2061
lhand -5.89784 -24.9581
lfingers 7.12502
lthumb 19.9306 4.03992
rfemur -2.97526 17.9535 28.3773
rtibia 26.5395
rfoot -23.0447 -35.0583
rtoes -6.77596
lfemur -7.64385 -21.9763 -25.3597
ltibia 30.4773
lfoot -22.8445 18.0593
ltoes -31.7667
4
root 7.8218 15.1559 41.7671 177.039 -2.05459 -179.737
lowerback 6.80543 1.03203 0.638376
upperback -5.12857 1.29126 -0.416942
thorax -9.23221 0.515206 -0.981413
lowerneck -5.77885 -3.31184 -6.7244
upperneck 16.8685 -5.09592 3.90972
head 6.33238 -2.88216 1.95339
rclavicle -2.66123e-014 -4.96962e-015
rhumerus -50.373 22.6245 -104.775
rradius 33.9479
rwrist 10.1846
rhand -3.62091 -54.7318
rfingers 7.12502
rthumb 22.118 -83.4867
lclavicle -2.66123e-014 -4.96962e-015
lhumerus -45.8448 2.06166 83.8818
lradius 38.847
lwrist -17.3367
lhand -8.4275 -25.0212
lfingers 7.12502
lthumb 17.4975 4.21138
rfemur -3.05339 17.8684 28.3579
rtibia 26.5487
rfoot -23.2533 -34.8713
rtoes -5.83582
lfemur -7.72286 -21.9385 -25.3007
ltibia 30.4742
lfoot -22.8245 18.1208
ltoes -32.0917
5
root 7.82364 15.1571 41.7667 177.054 -2.07157 -179.783
lowerback 6.74755 1.03665 0.584139
upperback -5.10411 1.29066 -0.432589
thorax -9.17199 0.518762 -0.965975
lowerneck -5.73639 -3.31327 -6.69104
upperneck 16.7367 -5.09086 3.91793
head 6.28228 -2.87244 1.95266
rclavicle -2.36057e-014 -1.78906e-015
rhumerus -50.3018 22.5513 -104.697
rradius 33.9594
rwrist 10.1798
rhand -3.62211 -54.8683
rfingers 7.12502
rthumb 22.1168 -83.6233
lclavicle -2.36057e-014 -1.78906e-015
lhumerus -45.8171 1.94995 83.9764
lradius 38.7712
lwrist -17.7079
lhand -7.14523 -25.3367
lfingers 7.12502
lthumb 18.7311 3.78146
rfemur -3.07271 17.6959 28.289
rtibia 26.5403
rfoot -23.1545 -34.7649
rtoes -6.31543
lfemur -7.73131 -21.939 -25.3283
ltibia 30.4682
lfoot -22.9434 17.963
ltoes -30.9822
6
root 7.82341 15.1578 41.7673 177.062 -2.11435 -179.805
lowerback 6.71903 1.02507 0.614431
upperback -5.0891 1.27593 -0.466249
thorax -9.13755 0.50897 -1.01577
lowerneck -5.68211 -3.32952 -6.67374
upperneck 16.6543 -5.11817 3.95568
head 6.24867 -2.88025 1.96125
rclavicle 1.35671e-014 -5.1684e-015
rhumerus -50.2114 22.4623 -104.649
rradius 33.8795
rwrist 10.2672
rhand -3.66496 -54.8213
rfingers 7.12502
rthumb 22.0757 -83.5812
lclavicle 1.35671e-014 -5.1684e-015
lhumerus -45.817 1.87282 83.9906
lradius 38.8022
lwrist -17.7271
lhand -6.68968 -25.5657
lfingers 7.12502
lthumb 19.1693 3.50956
rfemur -3.06895 17.6647 28.2647
rtibia 26.5285
rfoot -23.0915 -34.9225
rtoes -6.86979
lfemur -7.7446 -21.9666 -25.3354
ltibia 30.4576
lfoot -23.0432 17.7503
ltoes -30.0323
7
root 7.82462 15.1588 41.7707 177.069 -2.11938 -179.795
lowerback 6.73754 1.02198 0.613896
upperback -5.09808 1.27251 -0.454333
thorax -9.15868 0.507443 -1.00283
lowerneck -5.54234 -3.32149 -6.75962
upperneck 16.6158 -5.12595 4.04429
head 6.21685 -2.88669 2.0056
rclavicle 1.97791e-014 5.56597e-015
rhumerus -50.168 22.4259 -104.633
rradius 33.7458
rwrist 10.3412
rhand -3.82219 -54.6676
rfingers 7.12502
rthumb 21.9247 -83.4453
lclavicle 1.97791e-014 5.56597e-015
lhumerus -45.7998 1.92722 83.961
lradius 39.0343
lwrist -17.0797
lhand -5.36741 -25.3632
lfingers 7.12502
lthumb 20.4404 3.5809
rfemur -3.08902 17.7238 28.2788
rtibia 26.5207
rfoot -23.0953 -35.0896
rtoes -6.47696
lfemur -7.78289 -21.9063 -25.293
ltibia 30.4502
lfoot -22.9515 17.6782
ltoes -30.418
